<svg xmlns="http://www.w3.org/2000/svg" width="54" height="34" viewBox="0 0 54 34">
  <metadata><?xpacket begin="﻿" id="W5M0MpCehiHzreSzNTczkc9d"?>
<x:xmpmeta xmlns:x="adobe:ns:meta/" x:xmptk="Adobe XMP Core 5.6-c138 79.159824, 2016/09/14-01:09:01        ">
   <rdf:RDF xmlns:rdf="http://www.w3.org/1999/02/22-rdf-syntax-ns#">
      <rdf:Description rdf:about=""/>
   </rdf:RDF>
</x:xmpmeta>
                                                                                                    
                                                                                                    
                                                                                                    
                                                                                                    
                                                                                                    
                                                                                                    
                                                                                                    
                                                                                                    
                                                                                                    
                                                                                                    
                                                                                                    
                                                                                                    
                                                                                                    
                                                                                                    
                                                                                                    
                                                                                                    
                                                                                                    
                                                                                                    
                                                                                                    
                                                                                                    
                           
<?xpacket end="w"?></metadata>
<defs>
    <style>
      .cls-1 {
        fill: #fff;
        fill-rule: evenodd;
        opacity: 0.8;
      }
    </style>
  </defs>
  <path id="形状_187" data-name="形状 187" class="cls-1" d="M49.689,30.151A7.273,7.273,0,0,1,44.531,34a4.353,4.353,0,0,0,.425-1.524,6.753,6.753,0,0,0,4.275-6.658c0-3.716-3.005-6.1-5.808-6.819-0.532-3.67-3.133-6.488-6.928-6.488a10.905,10.905,0,0,0-2.152.4c-0.356-3.935-3.762-7.4-8.8-7.4a9.263,9.263,0,0,0-8.432,5.548,7.553,7.553,0,0,0-1.258-.105c-4.168,0-6.828,3.218-6.828,7.412,0,0.223.01,0.532,0.029,0.75l-0.135-.091c-3.407,0-7.424,2.545-7.424,6.8C1.5,29.8,3.913,32.4,7.013,32.8V33.7H6.958C3.4,33.7,0,30.095,0,25.649s3.245-8.383,6.8-8.383H6.944c-0.02-.227-0.03-0.457-0.03-0.69a8.043,8.043,0,0,1,8.04-7.934,7.882,7.882,0,0,1,1.315.11,8.187,8.187,0,0,1,2.868-3.3A11.57,11.57,0,0,1,28.745,0c5.368,0,9.582,3.311,9.96,7.508a8.032,8.032,0,0,1,1.913-.231,8.38,8.38,0,0,1,7.96,7.269C51.569,15.317,54,18.8,54,22.762A8.187,8.187,0,0,1,49.689,30.151ZM46.914,15.422A7.565,7.565,0,0,0,39.3,8.977a9.4,9.4,0,0,0-2.013.4,8.389,8.389,0,0,0-8.636-7.728A10.022,10.022,0,0,0,21.427,4.27a12.083,12.083,0,0,1,4.216-.749c5.261,0,9.569,3.245,9.941,7.358a7.85,7.85,0,0,1,1.875-.226,8.554,8.554,0,0,1,8.136,7.117c2.93,0.757,5.312,4,5.312,7.88a8.964,8.964,0,0,1-.52,2.979,7.934,7.934,0,0,0,2.252-5.87A7.743,7.743,0,0,0,46.914,15.422ZM13.394,28.188H14.61a0.847,0.847,0,0,1-1,.8H12.8v4.271H11.45c0-.129,0-0.286,0-0.457V28.992H9.67v-0.8h3.724Zm11.987-18a0.762,0.762,0,0,1,.185-0.069,1.3,1.3,0,0,1,.4-0.021,9.578,9.578,0,0,1,1.1.168,9.809,9.809,0,0,1,2.862,1.048,0.491,0.491,0,0,1-.034.535,0.2,0.2,0,0,1-.033.049,0.375,0.375,0,0,1-.038.037l-1.516,1.183,0.143,0.4c1.3,2.919,2.051,4.5,2.568,5.618,1.669-.891,3.352-1.89,4.977-2.933,0,0-.008-0.008.011,0.006a0.112,0.112,0,0,1,.019.049,1.372,1.372,0,0,1,.008.52,0.34,0.34,0,0,1-.061.147,0.66,0.66,0,0,1-.1.113Q33.6,18.9,31.547,20.323a23.932,23.932,0,0,1,.814,2.255l0.21,0.751a2.234,2.234,0,0,1,.04.235,0.768,0.768,0,0,1-.025.254A2.733,2.733,0,0,1,31.2,25.464l-0.681.272c-0.071.02-.143,0.037-0.215,0.051a30.851,30.851,0,0,0-1.266-3.849,15.962,15.962,0,0,1-7.064,2.59c-3.374.2-5.376-.92-5.4-3.919C16.67,17.955,20.248,13.219,25.381,10.186ZM20.868,22.74A22.749,22.749,0,0,0,28.4,20.445a42.677,42.677,0,0,0-2.969-5.39A20.634,20.634,0,0,0,18.9,21.323C18.482,22.142,18.741,22.7,20.868,22.74Zm-0.44,5.435A0.962,0.962,0,0,1,21.456,29.2l0,0v0.822h0l0,0c0,0.023,0,.047,0,0.07a1.125,1.125,0,0,1-.988,1.119l0.4,0.851,0.666,1.187c-1.164,0-1.322.128-1.558-.371l-0.228-.489L19.293,31.3l-0.446-1.052,1.371-.007V28.978H17.709l0.11,0v4.27H16.579V28.175h3.85Zm4.378,3.8a0.423,0.423,0,0,0,.481.482h1.492a0.421,0.421,0,0,0,.482-0.472V28.313H28.5v3.9h0s0,0.007,0,.011a0.964,0.964,0,0,1-1.03,1.036l-0.049,0H26.477l-0.049,0-0.063,0H24.534l-0.048,0-0.063,0H24.387v0a0.954,0.954,0,0,1-.931-1.032c0-.006,0-0.012,0-0.017h0v-3.9h1.349v3.658Zm5.633-.962V29.275c0-.017,0-0.032,0-0.048s0-.043,0-0.064V29.127a0.954,0.954,0,0,1,1.027-.938h3.892a0.849,0.849,0,0,1-1,.8H32.161a0.422,0.422,0,0,0-.478.485,0.164,0.164,0,0,1,0,.025v2.446a0.146,0.146,0,0,1,0,.025,0.42,0.42,0,0,0,.468.484H34.31a0.847,0.847,0,0,1,1,.8H31.467a0.964,0.964,0,0,1-1.031-1.036c0-.016,0-0.032,0-0.049V31.228c0-.016,0-0.032,0-0.049s0-.042,0-0.063V31.009ZM38.3,32.46h2.148a0.42,0.42,0,0,0,.469-0.484,0.1,0.1,0,0,1,0-.025V31.458a0.106,0.106,0,0,1,0-.026,0.421,0.421,0,0,0-.478-0.483l-0.005,0h-1.87v0l-0.018,0A1.143,1.143,0,0,1,37.414,29.9a0,0,0,0,1,0,0V29.861c0-.021,0-0.041,0-0.063s0-.033,0-0.05V29.239s0-.009,0-0.013,0-.012,0-0.018V29.187h0c0-.008,0-0.017,0-0.025V29.127a0.953,0.953,0,0,1,1.025-.938h3.848a0.847,0.847,0,0,1-1,.8H39.139a0.422,0.422,0,0,0-.479.485,0.163,0.163,0,0,1,0,.025v0.164a0.418,0.418,0,0,0,.454.474h2.081a1.142,1.142,0,0,1,1.136,1.048h0v0.036c0,0.022,0,.042,0,0.065s0,0.032,0,.048v0.841c0,0.016,0,.033,0,0.049a0.965,0.965,0,0,1-1.03,1.036h-4A0.847,0.847,0,0,1,38.3,32.46Z"/>
</svg>
